<svg width="12" height="16" viewBox="0 0 12 16" fill="none" xmlns="http://www.w3.org/2000/svg">
<path d="M6.45346 3.216L5.62691 1.78437C5.37107 1.34125 4.8334 1.19718 4.39028 1.45302L3.53812 1.94501C1.76562 2.96837 1.16054 5.22656 2.18389 6.99905L5.13587 12.112C6.15922 13.8845 8.41741 14.4896 10.1899 13.4663L11.0421 12.9743C11.4852 12.7184 11.6293 12.1808 11.3734 11.7376L10.5469 10.306C10.291 9.86288 9.75337 9.71881 9.31025 9.97465L8.83303 10.2502C8.21948 10.6044 7.46675 10.4027 7.11251 9.78915L5.1642 6.41459C4.80997 5.80103 5.01166 5.0483 5.62522 4.69406L6.10243 4.41855C6.53115 4.21647 6.7093 3.65913 6.45346 3.216Z" stroke="#BF6128" stroke-miterlimit="10" stroke-linecap="round" stroke-linejoin="round"/>
</svg>
