<svg width="48" height="48" viewBox="0 0 48 48" fill="none" xmlns="http://www.w3.org/2000/svg">
<path d="M15.025 40.425L16.15 39.4499C16.75 38.9249 17.425 38.6999 18.25 38.6999C20.425 38.6999 25.075 38.7 28.075 38.55C32.125 38.4 35.125 35.4 35.125 35.4L42.925 27.9749C43.9 26.9249 42.925 23.475 40.675 25.425L35.65 29.175C33.925 30.45 31.825 31.125 29.725 31.125H22.825" stroke="#BF6128" stroke-width="2" stroke-miterlimit="10" stroke-linecap="round" stroke-linejoin="round"/>
<path d="M29.125 31.1253C30.325 31.1253 29.8 27.9003 26.8 27.9003H19.45C12.025 25.6503 9.85 32.1753 9.85 32.1753" stroke="#BF6128" stroke-width="2" stroke-miterlimit="10" stroke-linecap="round" stroke-linejoin="round"/>
<path d="M4 33.1502L7.3 30.9002C7.975 30.4502 8.95 30.6002 9.4 31.3502L15.775 41.5502C16.225 42.2252 16 43.1252 15.4 43.5752L11.575 46.3502" stroke="#BF6128" stroke-width="2" stroke-miterlimit="10" stroke-linecap="round" stroke-linejoin="round"/>
<path d="M36.55 9.74951V9.82451V24.4495H19V9.82451" stroke="#BF6128" stroke-width="2" stroke-miterlimit="10" stroke-linecap="round" stroke-linejoin="round"/>
<path d="M40.225 13.1999L27.775 1.6499L15.325 13.1999" stroke="#BF6128" stroke-width="2" stroke-miterlimit="10" stroke-linecap="round" stroke-linejoin="round"/>
<path d="M24.6501 23.9998L24.6501 14.9998" stroke="#BF6128" stroke-width="2" stroke-miterlimit="10" stroke-linecap="round" stroke-linejoin="round"/>
<path d="M30.6501 23.9998L30.6501 14.9998" stroke="#BF6128" stroke-width="2" stroke-miterlimit="10" stroke-linecap="round" stroke-linejoin="round"/>
<path d="M24.6501 14.9998H30.6501" stroke="#BF6128" stroke-width="2" stroke-miterlimit="10" stroke-linecap="round" stroke-linejoin="round"/>
</svg>
