<svg id="Слой_1" data-name="Слой 1" xmlns="http://www.w3.org/2000/svg" viewBox="0 0 252.28 162.43"><defs><style>.cls-1{fill:#1d1d1b;}.cls-2{opacity:0.2;}.cls-3,.cls-5{fill:#bf6027;}.cls-4{fill:#cdcccc;}.cls-4,.cls-5{fill-rule:evenodd;}.cls-6,.cls-7{fill:none;stroke:#fff;stroke-miterlimit:1.5;}.cls-6{stroke-width:0.13px;}.cls-7{stroke-width:0.19px;}</style></defs><path class="cls-1" d="M60.33,59.75h2.74v6.64l5.48-6.64h3.32l-6,7.1,6.4,7.3H68.81l-5.74-6.56v6.56H60.33Z"/><path class="cls-1" d="M72.65,71.88a2.43,2.43,0,0,0,.55.08,1.24,1.24,0,0,0,.81-.27,2,2,0,0,0,.52-.76,4.91,4.91,0,0,0,.29-1.16,12.91,12.91,0,0,0,.13-1.5c0-.55,0-1.13,0-1.75V59.75H85.34v14.4H82.6V62.29H77.52V66.9a25.54,25.54,0,0,1-.12,2.64,14.42,14.42,0,0,1-.34,2,6,6,0,0,1-.53,1.4,3.64,3.64,0,0,1-.67.9,2.34,2.34,0,0,1-.8.49,3,3,0,0,1-.89.14,3.81,3.81,0,0,1-.75-.07,7.27,7.27,0,0,1-.77-.2Z"/><path class="cls-1" d="M88.14,74.15V59.75h2.74v5.84h2.17a8,8,0,0,1,.73-2.53,6.33,6.33,0,0,1,1.44-1.93,6.12,6.12,0,0,1,2.08-1.24,7.61,7.61,0,0,1,2.64-.44,7.47,7.47,0,0,1,2.91.54,6.05,6.05,0,0,1,2.2,1.53,6.79,6.79,0,0,1,1.38,2.37,9.8,9.8,0,0,1,0,6.12,6.79,6.79,0,0,1-1.38,2.37,6.05,6.05,0,0,1-2.2,1.53,7.47,7.47,0,0,1-2.91.54A7.62,7.62,0,0,1,97.3,74a6.29,6.29,0,0,1-2.08-1.24,6.5,6.5,0,0,1-1.44-1.94,8.09,8.09,0,0,1-.73-2.53H90.88v5.84Zm11.8-2.26a4.41,4.41,0,0,0,1.8-.35,3.38,3.38,0,0,0,1.28-1,4.37,4.37,0,0,0,.76-1.56,8.13,8.13,0,0,0,0-4.08,4.32,4.32,0,0,0-.76-1.55,3.4,3.4,0,0,0-1.28-1,4.41,4.41,0,0,0-1.8-.35,4.35,4.35,0,0,0-1.8.35,3.33,3.33,0,0,0-1.28,1,4.34,4.34,0,0,0-.77,1.55,8.45,8.45,0,0,0,0,4.08,4.38,4.38,0,0,0,.77,1.56,3.3,3.3,0,0,0,1.28,1A4.35,4.35,0,0,0,99.94,71.89Z"/><path class="cls-1" d="M117.6,74.15v-5.6a4.41,4.41,0,0,1-.79.46,6.78,6.78,0,0,1-.9.3,7.38,7.38,0,0,1-.94.16c-.31,0-.62,0-.92,0a6.4,6.4,0,0,1-2.18-.34,4.26,4.26,0,0,1-1.61-1,4.57,4.57,0,0,1-1-1.69,7.4,7.4,0,0,1-.34-2.37V59.75h2.76v3.32a9.44,9.44,0,0,0,.13,1.69,3.07,3.07,0,0,0,.48,1.21,2.05,2.05,0,0,0,.92.74,3.92,3.92,0,0,0,1.48.24,7,7,0,0,0,.77,0,5.1,5.1,0,0,0,.78-.14,3.89,3.89,0,0,0,.74-.28,2.33,2.33,0,0,0,.62-.46V59.75h2.74v14.4Z"/><path class="cls-1" d="M66.51,94.45a7.56,7.56,0,0,1-2.92-.54,6.1,6.1,0,0,1-2.19-1.53A7,7,0,0,1,60,90a10,10,0,0,1,0-6.12,7,7,0,0,1,1.39-2.37A6.1,6.1,0,0,1,63.59,80a7.56,7.56,0,0,1,2.92-.54,7.47,7.47,0,0,1,2.91.54,6.05,6.05,0,0,1,2.2,1.53A6.79,6.79,0,0,1,73,83.89,9.8,9.8,0,0,1,73,90a6.79,6.79,0,0,1-1.38,2.37,6.05,6.05,0,0,1-2.2,1.53A7.47,7.47,0,0,1,66.51,94.45Zm0-2.56a4.41,4.41,0,0,0,1.8-.35,3.38,3.38,0,0,0,1.28-1A4.37,4.37,0,0,0,70.35,89a8.13,8.13,0,0,0,0-4.08,4.32,4.32,0,0,0-.76-1.55,3.4,3.4,0,0,0-1.28-1,4.41,4.41,0,0,0-1.8-.35,4.35,4.35,0,0,0-1.8.35,3.33,3.33,0,0,0-1.28,1,4.34,4.34,0,0,0-.77,1.55,8.45,8.45,0,0,0,0,4.08,4.38,4.38,0,0,0,.77,1.56,3.3,3.3,0,0,0,1.28,1A4.35,4.35,0,0,0,66.51,91.89Z"/><path class="cls-1" d="M78.26,94.15V82.29H74V79.75h11.2v2.54H81V94.15Z"/><path class="cls-1" d="M96.41,94.15H90.69V79.75h5.57a7,7,0,0,1,1.86.24,4.6,4.6,0,0,1,1.53.72,3.39,3.39,0,0,1,1.41,2.85,3.62,3.62,0,0,1-.2,1.24,3.49,3.49,0,0,1-.49.92,2.62,2.62,0,0,1-.64.61,3.18,3.18,0,0,1-.67.33,2.58,2.58,0,0,1,.84.32,3,3,0,0,1,.8.68,3.37,3.37,0,0,1,.59,1,4.28,4.28,0,0,1-.17,3.24A3.71,3.71,0,0,1,100,93.19a5,5,0,0,1-1.63.73A8.37,8.37,0,0,1,96.41,94.15Zm-.09-11.86H93.43v3.19h2.89a3.8,3.8,0,0,0,.77-.07,1.76,1.76,0,0,0,.64-.26,1.22,1.22,0,0,0,.42-.48,2,2,0,0,0,0-1.56,1.19,1.19,0,0,0-.42-.49,1.75,1.75,0,0,0-.64-.25A3.79,3.79,0,0,0,96.32,82.29Zm.09,9.32a6.36,6.36,0,0,0,.87-.06,2.41,2.41,0,0,0,.77-.26,1.56,1.56,0,0,0,.55-.56,1.84,1.84,0,0,0,.21-.94,1.78,1.78,0,0,0-.21-.93,1.53,1.53,0,0,0-.55-.55,2.19,2.19,0,0,0-.77-.26,5.1,5.1,0,0,0-.87-.07h-3v3.63Z"/><path class="cls-1" d="M109.71,94.45a7.56,7.56,0,0,1-2.92-.54,6.1,6.1,0,0,1-2.19-1.53A7,7,0,0,1,103.21,90a10,10,0,0,1,0-6.12,7,7,0,0,1,1.39-2.37A6.1,6.1,0,0,1,106.79,80a7.56,7.56,0,0,1,2.92-.54,7.85,7.85,0,0,1,2.28.32,6.56,6.56,0,0,1,1.88.91,5.93,5.93,0,0,1,1.43,1.44,6.71,6.71,0,0,1,1,1.89l-2.74.76a4.06,4.06,0,0,0-1.35-2,3.88,3.88,0,0,0-2.45-.73,4.25,4.25,0,0,0-1.76.35,3.52,3.52,0,0,0-1.29,1,4.55,4.55,0,0,0-.8,1.55,8,8,0,0,0,0,4.08,4.38,4.38,0,0,0,.77,1.56,3.41,3.41,0,0,0,1.29,1,4.35,4.35,0,0,0,1.8.35,3.94,3.94,0,0,0,2.45-.72,4.13,4.13,0,0,0,1.35-2l2.74.76a6.9,6.9,0,0,1-1,1.9,6.07,6.07,0,0,1-1.43,1.43,6.56,6.56,0,0,1-1.88.91A7.85,7.85,0,0,1,109.71,94.45Z"/><path class="cls-1" d="M118.45,94.15V79.75h9.42v2.54h-6.68v3.08h5.48v2.54h-5.48v3.7h6.68v2.54Z"/><path class="cls-1" d="M129.07,94.15l4.84-7.28-4.7-7.12h3.34l3.06,4.8,3-4.8H142l-4.7,7.12,4.82,7.28h-3.34l-3.16-5-3.18,5Z"/><path class="cls-1" d="M146.91,91.61h1.2a2.64,2.64,0,0,0,.57-1.1,11.43,11.43,0,0,0,.32-1.68c.08-.63.13-1.32.15-2.06s0-1.5,0-2.27V79.75h10.45V91.61h1.62V97h-2.74v-2.8h-8.88V97h-2.72Zm10,0V82.29h-5.18V85.7a27.91,27.91,0,0,1-.22,3.77,8.24,8.24,0,0,1-.53,2.14Z"/><path class="cls-1" d="M169.17,94.15h-5.72V79.75H169a7,7,0,0,1,1.86.24,4.7,4.7,0,0,1,1.53.72,3.39,3.39,0,0,1,1.41,2.85,3.62,3.62,0,0,1-.2,1.24,3.49,3.49,0,0,1-.49.92,2.81,2.81,0,0,1-.64.61,3.18,3.18,0,0,1-.67.33,2.58,2.58,0,0,1,.84.32,3,3,0,0,1,.8.68,3.37,3.37,0,0,1,.59,1,4.28,4.28,0,0,1-.17,3.24,3.71,3.71,0,0,1-1.11,1.25,5,5,0,0,1-1.63.73A8.37,8.37,0,0,1,169.17,94.15Zm-.09-11.86h-2.89v3.19h2.89a3.8,3.8,0,0,0,.77-.07,1.83,1.83,0,0,0,.64-.26,1.22,1.22,0,0,0,.42-.48,2,2,0,0,0,0-1.56,1.19,1.19,0,0,0-.42-.49,1.82,1.82,0,0,0-.64-.25A3.79,3.79,0,0,0,169.08,82.29Zm.09,9.32a6.36,6.36,0,0,0,.87-.06,2.41,2.41,0,0,0,.77-.26,1.56,1.56,0,0,0,.55-.56,1.84,1.84,0,0,0,.21-.94,1.78,1.78,0,0,0-.21-.93,1.53,1.53,0,0,0-.55-.55,2.19,2.19,0,0,0-.77-.26,5.1,5.1,0,0,0-.87-.07h-3v3.63Z"/><path class="cls-1" d="M176.29,94.15V79.75h9.42v2.54H179v3.08h5.48v2.54H179v3.7h6.68v2.54Z"/><path class="cls-1" d="M188.11,94.15V79.75h5.8a7.56,7.56,0,0,1,2.3.32,4.14,4.14,0,0,1,1.63.94,3.89,3.89,0,0,1,1,1.49,6.47,6.47,0,0,1,0,4,3.93,3.93,0,0,1-1,1.5,4.13,4.13,0,0,1-1.63.93,7.56,7.56,0,0,1-2.3.32h-3.06v4.88Zm2.74-7.42h3a2.77,2.77,0,0,0,1.87-.56,2.12,2.12,0,0,0,.63-1.66,2.08,2.08,0,0,0-.63-1.65,2.72,2.72,0,0,0-1.87-.57h-3Z"/><path class="cls-1" d="M201.13,94.15V79.75h9.42v2.54h-6.68v3.08h5.48v2.54h-5.48v3.7h6.68v2.54Z"/><path class="cls-1" d="M222,94.15v-9.7l-6.3,9.7H213V79.75h2.74v9.7l6.3-9.7h2.74v14.4Zm-3.2-15.6a3.15,3.15,0,0,1-3.18-3.18h2.1a1,1,0,0,0,.14.55,1.21,1.21,0,0,0,.39.39,1.12,1.12,0,0,0,.55.14,1.09,1.09,0,0,0,.54-.14,1.21,1.21,0,0,0,.39-.39,1.06,1.06,0,0,0,.15-.55H222a3.15,3.15,0,0,1-3.18,3.18Z"/><path class="cls-1" d="M62.07,110A2.62,2.62,0,0,1,61,109.8a2.06,2.06,0,0,1-.79-.57,2.64,2.64,0,0,1-.51-.9,4.15,4.15,0,0,1,0-2.35,2.64,2.64,0,0,1,.51-.9,2.17,2.17,0,0,1,.8-.57,2.6,2.6,0,0,1,1.06-.2,2.83,2.83,0,0,1,.78.1,2.28,2.28,0,0,1,.65.3,2.07,2.07,0,0,1,.51.47,1.92,1.92,0,0,1,.32.62l-.72.23a1.43,1.43,0,0,0-.25-.43,1.52,1.52,0,0,0-.35-.32,1.6,1.6,0,0,0-.44-.2,1.68,1.68,0,0,0-.5-.07,1.81,1.81,0,0,0-.76.15,1.45,1.45,0,0,0-.55.43,1.92,1.92,0,0,0-.34.67,3.58,3.58,0,0,0-.11.9,3.48,3.48,0,0,0,.11.88,2.21,2.21,0,0,0,.33.67,1.47,1.47,0,0,0,.55.44,1.86,1.86,0,0,0,.77.15,1.67,1.67,0,0,0,.94-.25,1.61,1.61,0,0,0,.58-.74l.74.22a2.32,2.32,0,0,1-.88,1.1A2.48,2.48,0,0,1,62.07,110Z"/><path class="cls-1" d="M65.76,104.46h.73v2.6l2.41-2.6h1l-2.53,2.7,2.86,2.7H69.14l-2.65-2.6v2.6h-.73Z"/><path class="cls-1" d="M75.4,104.46v5.4h-.73v-4.24l-2.83,4.24h-.73v-5.4h.73v4.23l2.83-4.23Z"/><path class="cls-1" d="M76.8,109.16h.53a1.21,1.21,0,0,0,.2-.41,3,3,0,0,0,.13-.59c0-.23,0-.48.07-.76s0-.57,0-.88v-2.06h3.92v4.7h.7V111h-.74v-1.13H77.54V111H76.8Zm4.13,0v-4H78.44v1.77c0,.24,0,.48,0,.7s0,.44-.06.63-.07.36-.1.52a2,2,0,0,1-.14.38Z"/><path class="cls-1" d="M86,110A2.59,2.59,0,0,1,85,109.8a2.29,2.29,0,0,1-.81-.59,2.62,2.62,0,0,1-.5-.9,3.87,3.87,0,0,1-.17-1.16,3.57,3.57,0,0,1,.18-1.16,2.47,2.47,0,0,1,.5-.9,2.27,2.27,0,0,1,.81-.58,2.57,2.57,0,0,1,1.06-.2,2.6,2.6,0,0,1,1.08.21,2.27,2.27,0,0,1,.81.58,2.47,2.47,0,0,1,.5.9,3.51,3.51,0,0,1,.17,1.15,3.87,3.87,0,0,1-.17,1.16,2.69,2.69,0,0,1-.51.91,2.32,2.32,0,0,1-.8.58A2.67,2.67,0,0,1,86,110Zm0-.71a1.87,1.87,0,0,0,.78-.15,1.61,1.61,0,0,0,.56-.44,2,2,0,0,0,.33-.68,3.62,3.62,0,0,0,0-1.77,1.77,1.77,0,0,0-.34-.67,1.45,1.45,0,0,0-.55-.43A1.9,1.9,0,0,0,86,105a1.86,1.86,0,0,0-.77.15,1.43,1.43,0,0,0-.56.44,1.8,1.8,0,0,0-.33.68,3,3,0,0,0-.11.87,3.44,3.44,0,0,0,.11.89,2,2,0,0,0,.34.68,1.41,1.41,0,0,0,.56.43A1.81,1.81,0,0,0,86,109.3Z"/><path class="cls-1" d="M93.1,109.86v-2.17a2.51,2.51,0,0,1-.65.25,3.37,3.37,0,0,1-.82.09,2.59,2.59,0,0,1-.83-.12,1.33,1.33,0,0,1-.57-.38,1.5,1.5,0,0,1-.34-.65,3.59,3.59,0,0,1-.11-.93v-1.49h.74v1.39a4.44,4.44,0,0,0,0,.69,1.17,1.17,0,0,0,.21.48.87.87,0,0,0,.37.28,1.72,1.72,0,0,0,.6.09,2.7,2.7,0,0,0,.74-.1,2.25,2.25,0,0,0,.61-.28v-2.55h.73v5.4Z"/><path class="cls-1" d="M95.62,109.86v-5.4h.74v2.35h3v-2.35h.74v5.4H99.4v-2.35h-3v2.35Z"/><path class="cls-1" d="M104,104.31c1.44,0,2.15.74,2.15,2.24v3.31h-.73V109a2,2,0,0,1-.78.79,2.42,2.42,0,0,1-1.18.27,2.67,2.67,0,0,1-.78-.11,1.69,1.69,0,0,1-.58-.31,1.35,1.35,0,0,1-.37-.49,1.59,1.59,0,0,1-.13-.66,1.51,1.51,0,0,1,.16-.73,1.32,1.32,0,0,1,.44-.5,2.16,2.16,0,0,1,.7-.32,5.51,5.51,0,0,1,.9-.18l1.62-.21a1.64,1.64,0,0,0-.34-1.16A1.45,1.45,0,0,0,104,105a1.35,1.35,0,0,0-1.49,1l-.7-.17a1.9,1.9,0,0,1,.76-1.13A2.49,2.49,0,0,1,104,104.31Zm-.13,3a3.87,3.87,0,0,0-.71.14,1.58,1.58,0,0,0-.47.22.84.84,0,0,0-.28.32,1.08,1.08,0,0,0-.08.42c0,.63.42.95,1.26.95a1.93,1.93,0,0,0,.65-.1,1.63,1.63,0,0,0,.52-.28,1.61,1.61,0,0,0,.38-.44,1.82,1.82,0,0,0,.21-.58,1.54,1.54,0,0,0,.06-.43c0-.15,0-.29,0-.41Z"/><path class="cls-1" d="M107.65,109.86l1-2.18a1.46,1.46,0,0,1-.79-.59,1.69,1.69,0,0,1-.27-1,1.81,1.81,0,0,1,.12-.67,1.49,1.49,0,0,1,.35-.53,1.61,1.61,0,0,1,.58-.35,2.55,2.55,0,0,1,.81-.12h2.4v5.4h-.74V107.8h-1.73l-1,2.06Zm1.91-4.76a1.7,1.7,0,0,0-.53.07,1.09,1.09,0,0,0-.38.22.83.83,0,0,0-.22.33,1.07,1.07,0,0,0-.07.41,1.16,1.16,0,0,0,.07.42.87.87,0,0,0,.22.32,1.07,1.07,0,0,0,.38.21,1.69,1.69,0,0,0,.53.08h1.58V105.1Z"/><path class="cls-1" d="M116.07,104.46h.74v2.6l2.41-2.6h1l-2.53,2.7,2.86,2.7h-1.07l-2.65-2.6v2.6h-.74Z"/><path class="cls-1" d="M123.53,104.31c1.44,0,2.15.74,2.15,2.24v3.31H125V109a2,2,0,0,1-.78.79A2.42,2.42,0,0,1,123,110a2.67,2.67,0,0,1-.78-.11,1.69,1.69,0,0,1-.58-.31,1.35,1.35,0,0,1-.37-.49,1.59,1.59,0,0,1-.13-.66,1.64,1.64,0,0,1,.15-.73,1.44,1.44,0,0,1,.45-.5,2.2,2.2,0,0,1,.69-.32,5.86,5.86,0,0,1,.91-.18l1.62-.21a1.64,1.64,0,0,0-.34-1.16,1.45,1.45,0,0,0-1.09-.36,1.35,1.35,0,0,0-1.49,1l-.7-.17a1.9,1.9,0,0,1,.76-1.13A2.49,2.49,0,0,1,123.53,104.31Zm-.13,3a3.87,3.87,0,0,0-.71.14,1.78,1.78,0,0,0-.48.22.91.91,0,0,0-.27.32,1.08,1.08,0,0,0-.08.42c0,.63.42.95,1.26.95a1.93,1.93,0,0,0,.65-.1,1.63,1.63,0,0,0,.52-.28,1.61,1.61,0,0,0,.38-.44,1.82,1.82,0,0,0,.21-.58,1.54,1.54,0,0,0,.06-.43c0-.15,0-.29,0-.41Z"/><path class="cls-1" d="M127.38,112.26v-7.8h.74v.9a1.87,1.87,0,0,1,.73-.77,2.14,2.14,0,0,1,1.14-.28,2.48,2.48,0,0,1,1,.21,2.21,2.21,0,0,1,.77.58,2.59,2.59,0,0,1,.48.9,3.51,3.51,0,0,1,.17,1.15,3.58,3.58,0,0,1-.17,1.16,2.49,2.49,0,0,1-.49.91,2.21,2.21,0,0,1-.77.58,2.46,2.46,0,0,1-1,.21,2.21,2.21,0,0,1-1.14-.28,2,2,0,0,1-.73-.78v3.31Zm2.51-3a1.8,1.8,0,0,0,.79-.16,1.4,1.4,0,0,0,.55-.44,1.83,1.83,0,0,0,.33-.67,3.08,3.08,0,0,0,.11-.88,3,3,0,0,0-.11-.88,1.8,1.8,0,0,0-.33-.68,1.5,1.5,0,0,0-.56-.43,1.87,1.87,0,0,0-.78-.15,1.73,1.73,0,0,0-.78.16,1.43,1.43,0,0,0-.56.44,2.21,2.21,0,0,0-.33.67,3.35,3.35,0,0,0-.1.87,3,3,0,0,0,.11.88,1.81,1.81,0,0,0,.34.68,1.4,1.4,0,0,0,.55.44A1.86,1.86,0,0,0,129.89,109.3Z"/><path class="cls-1" d="M135.4,109.86v-4.7h-1.9v-.7H138v.7h-1.9v4.7Z"/><path class="cls-1" d="M141.29,104.31c1.44,0,2.15.74,2.15,2.24v3.31h-.73V109a2,2,0,0,1-.78.79,2.42,2.42,0,0,1-1.18.27,2.67,2.67,0,0,1-.78-.11,1.69,1.69,0,0,1-.58-.31,1.35,1.35,0,0,1-.37-.49,1.59,1.59,0,0,1-.13-.66,1.64,1.64,0,0,1,.15-.73,1.44,1.44,0,0,1,.45-.5,2.2,2.2,0,0,1,.69-.32,5.86,5.86,0,0,1,.91-.18l1.62-.21a1.64,1.64,0,0,0-.34-1.16,1.45,1.45,0,0,0-1.09-.36,1.35,1.35,0,0,0-1.49,1l-.7-.17a1.9,1.9,0,0,1,.76-1.13A2.49,2.49,0,0,1,141.29,104.31Zm-.13,3a3.87,3.87,0,0,0-.71.14,1.78,1.78,0,0,0-.48.22.91.91,0,0,0-.27.32,1.08,1.08,0,0,0-.08.42c0,.63.42.95,1.26.95a1.93,1.93,0,0,0,.65-.1,1.63,1.63,0,0,0,.52-.28,1.61,1.61,0,0,0,.38-.44,1.82,1.82,0,0,0,.21-.58,1.54,1.54,0,0,0,.06-.43c0-.15,0-.29,0-.41Z"/><g class="cls-2"><path class="cls-3" d="M29.29,163.08V45.78L-1.36,62.31V40.74L31.69,22H50.92V163.08Z"/></g><path class="cls-1" d="M179.62,42.27V25.72l-4.35,2.33V25L180,22.37h2.73v19.9Z"/><path class="cls-3" d="M199.77,24.47a10.26,10.26,0,0,1,2.08,6.86,13.52,13.52,0,0,1-2.36,8.07A7.63,7.63,0,0,1,193,42.64a7.71,7.71,0,0,1-4.38-1.25V38.55a7.16,7.16,0,0,0,4,1.25,5.16,5.16,0,0,0,4.38-2A8.38,8.38,0,0,0,198.64,33a6.09,6.09,0,0,1-5.15,2.25,6.4,6.4,0,0,1-4.58-1.73,6.09,6.09,0,0,1-1.82-4.61,6.56,6.56,0,0,1,2-4.95,7.63,7.63,0,0,1,10.69.54Zm-8.41,1.45a4,4,0,0,0-1.17,2.9,3.66,3.66,0,0,0,1.17,2.82,4.27,4.27,0,0,0,2.95,1,4.53,4.53,0,0,0,2.73-.91,4.12,4.12,0,0,0,1.68-2.25c-.23-3-1.82-4.77-4.43-4.77A4,4,0,0,0,191.36,25.92Z"/><path class="cls-3" d="M220.47,36.73a5,5,0,0,1-2.25,4.32,9.27,9.27,0,0,1-5.51,1.59,9.49,9.49,0,0,1-5.55-1.59,5,5,0,0,1-2.24-4.32,5.34,5.34,0,0,1,4-5,4.69,4.69,0,0,1-1.08-8.18A7.75,7.75,0,0,1,212.71,22a7.66,7.66,0,0,1,4.86,1.51,4.71,4.71,0,0,1-1,8.18A5.31,5.31,0,0,1,220.47,36.73ZM216,34.05a5.17,5.17,0,0,0-3.24-1,5.33,5.33,0,0,0-3.27,1,3,3,0,0,0,0,5,5.34,5.34,0,0,0,3.27,1A5.25,5.25,0,0,0,216,39a3,3,0,0,0,0-5Zm.57-6.42c0-1.79-1.65-3-3.81-3s-3.84,1.25-3.84,3,1.65,3,3.84,3S216.52,29.42,216.52,27.63Z"/><path class="cls-3" d="M223,41.13v-3a9.63,9.63,0,0,0,5.77,1.76,5.37,5.37,0,0,0,3.39-1.08,3.57,3.57,0,0,0,1.42-3c0-2.28-1.79-3.87-4.61-3.87a7,7,0,0,0-2.53.45V30.27l5.35-5.17h-8V22.37h12.2v2.36l-5.09,4.89A6.9,6.9,0,0,1,235,31.55a5.6,5.6,0,0,1,1.73,4.27,6.1,6.1,0,0,1-2.24,5,8.35,8.35,0,0,1-5.55,1.87A11,11,0,0,1,223,41.13Z"/><path class="cls-1" d="M179.85,47.17l1-2.3h.45l1,2.3h-.5l-.23-.53h-1l-.23.53Zm.86-.91h.67l-.33-.8Z"/><path class="cls-1" d="M182.56,47.17V44.89h1.65v.42H183v1.86Z"/><path class="cls-1" d="M184.57,47.17V44.89h1.68v.42H185v.44h1v.41h-1v.59h1.25v.42Z"/><path class="cls-1" d="M186.66,47.17V44.89h.47v.85h1v-.85h.47v2.28h-.47v-1h-1v1Z"/><path class="cls-1" d="M189,44.89h1.92v.42h-.73v1.86h-.47V45.31H189Z"/><path class="cls-1" d="M191.35,46.89a1.23,1.23,0,0,1,0-1.72,1.33,1.33,0,0,1,1.49-.18v.47a1.06,1.06,0,0,0-.6-.18.77.77,0,0,0-.55.21.75.75,0,0,0-.21.54.7.7,0,0,0,.22.54.78.78,0,0,0,.56.21,1,1,0,0,0,.62-.2v.47a1.33,1.33,0,0,1-1.53-.16Z"/><path class="cls-1" d="M193.13,44.89h1.92v.42h-.73v1.86h-.47V45.31h-.72Z"/><path class="cls-1" d="M195.39,47.17V44.89h1.08c.42,0,.69.2.69.57a.46.46,0,0,1-.29.45.6.6,0,0,1,.47.61.56.56,0,0,1-.22.47.86.86,0,0,1-.58.18Zm.47-1.39h.53c.2,0,.32-.09.32-.25s-.12-.25-.32-.25h-.53Zm0,1h.6c.23,0,.37-.1.37-.3s-.14-.3-.37-.3h-.6Z"/><path class="cls-1" d="M197.94,45.19a1.14,1.14,0,0,1,.85-.35,1.12,1.12,0,0,1,.84.35,1.21,1.21,0,0,1,0,1.68,1.12,1.12,0,0,1-.84.35,1.2,1.2,0,0,1-.85-2Zm.85,1.59a.66.66,0,0,0,.5-.21.72.72,0,0,0,.2-.54.74.74,0,0,0-.2-.54.66.66,0,0,0-.5-.21.69.69,0,0,0-.51.21.78.78,0,0,0-.2.54.77.77,0,0,0,.2.54A.69.69,0,0,0,198.79,46.78Z"/><path class="cls-1" d="M180.05,51.09V48.8h.47v.86h1V48.8H182v2.29h-.47v-1h-1v1Z"/><path class="cls-1" d="M182.52,51.09V48.8h1.68v.42H183v.44h1v.42h-1v.59h1.25v.42Z"/><path class="cls-1" d="M184.42,51.55v-.88h.22a1.65,1.65,0,0,0,.23-.59,4.58,4.58,0,0,0,.07-.92V48.8h1.61v1.87h.31v.88h-.44v-.46h-1.56v.46Zm1.66-.88V49.22h-.67a3.2,3.2,0,0,1-.25,1.45Z"/><path class="cls-1" d="M187.2,51.09V48.8h1.08c.42,0,.69.21.69.57a.48.48,0,0,1-.29.46.53.53,0,0,1,.33.2.62.62,0,0,1,.14.41.6.6,0,0,1-.22.47.87.87,0,0,1-.58.18Zm.47-1.39h.53c.2,0,.32-.09.32-.25s-.12-.26-.32-.26h-.53Zm0,1h.59c.24,0,.38-.1.38-.3s-.14-.3-.38-.3h-.59Z"/><path class="cls-1" d="M189.54,51.09V48.8H190v1.49l1.11-1.49h.4v2.29h-.47v-1.5l-1.12,1.5Z"/><path class="cls-1" d="M191.79,51.09l1-1.19-.87-1.1h.58l.75,1v-1h.47v1l.75-1H195l-.87,1.1,1,1.19h-.61l-.82-1v1h-.47v-1l-.82,1Z"/><path class="cls-1" d="M195.39,51.09V48.8h.47v1.49L197,48.8h.4v2.29h-.47v-1.5l-1.12,1.5Z"/><path class="cls-1" d="M197.87,51.09V48.8h.47l.66,1,.67-1h.46v2.29h-.46V49.52l-.53.74h-.26l-.54-.74v1.57Z"/><path class="cls-1" d="M200.89,49.1a1.23,1.23,0,0,1,1.7,0,1.19,1.19,0,0,1,.34.85,1.21,1.21,0,0,1-.34.84,1.23,1.23,0,0,1-1.7,0,1.2,1.2,0,0,1-.33-.84A1.18,1.18,0,0,1,200.89,49.1Zm.85,1.59a.66.66,0,0,0,.5-.21.79.79,0,0,0,0-1.07.66.66,0,0,0-.5-.21.69.69,0,0,0-.51.21A.76.76,0,0,0,201,50a.75.75,0,0,0,.19.53A.69.69,0,0,0,201.74,50.69Z"/><path class="cls-1" d="M203.62,50.8a1.22,1.22,0,0,1,0-1.71,1.24,1.24,0,0,1,.89-.33,1.21,1.21,0,0,1,.6.14v.47a1.13,1.13,0,0,0-.6-.17.77.77,0,0,0-.55.21.73.73,0,0,0-.21.54.69.69,0,0,0,.22.53.78.78,0,0,0,.56.21,1,1,0,0,0,.63-.2V51a1.28,1.28,0,0,1-.65.16A1.26,1.26,0,0,1,203.62,50.8Z"/><path class="cls-1" d="M205.4,48.8h1.92v.42h-.73v1.87h-.47V49.22h-.72Z"/><path class="cls-1" d="M207.67,51.09V48.8h.47v1.49l1.1-1.49h.41v2.29h-.47v-1.5l-1.12,1.5Z"/><path class="cls-1" d="M211,51.09V48.8h.47v1.49l1.11-1.49h.4v2.29h-.47v-1.5l-1.12,1.5Z"/><path class="cls-1" d="M214.31,51.09V48.8h.47v1.49l1.11-1.49h.4v2.29h-.47v-1.5l-1.12,1.5Z"/><path class="cls-1" d="M216.79,51.09V48.8h.47v.86h1V48.8h.46v2.29h-.46v-1h-1v1Z"/><path class="cls-1" d="M219.27,51.09V48.8h1.07c.42,0,.69.21.69.57a.48.48,0,0,1-.28.46.53.53,0,0,1,.32.2.62.62,0,0,1,.14.41.57.57,0,0,1-.22.47.85.85,0,0,1-.57.18Zm.47-1.39h.53c.19,0,.31-.09.31-.25s-.12-.26-.31-.26h-.53Zm0,1h.59c.23,0,.37-.1.37-.3s-.14-.3-.37-.3h-.59Z"/><path class="cls-1" d="M221.6,51.09V48.8h1.68v.42h-1.21v.44h1v.42h-1v.59h1.25v.42Z"/><path class="cls-1" d="M223.92,50.8a1.11,1.11,0,0,1-.36-.85,1.15,1.15,0,0,1,.35-.86,1.26,1.26,0,0,1,.89-.33,1.16,1.16,0,0,1,.6.14v.47a1.08,1.08,0,0,0-.6-.17.76.76,0,0,0-.54.21A.74.74,0,0,0,224,50a.7.7,0,0,0,.23.53.75.75,0,0,0,.55.21,1,1,0,0,0,.63-.2V51a1.25,1.25,0,0,1-.65.16A1.22,1.22,0,0,1,223.92,50.8Z"/><path class="cls-1" d="M225.7,48.8h1.91v.42h-.72v1.87h-.47V49.22h-.72Z"/><path class="cls-1" d="M228,51.09V48.8h.47v1.49l1.11-1.49h.4v2.29h-.46v-1.5l-1.12,1.5Z"/><path class="cls-1" d="M232.22,51.55v-.46h-1.77V48.8h.47v1.87h1V48.8h.47v1.87h.32v.88Z"/><path class="cls-1" d="M233,51.09V48.8h.47v1.49l1.11-1.49h.4v2.29h-.46v-1.5l-1.12,1.5Z"/><path class="cls-1" d="M235.49,51.09V48.8H236v1.49l1.1-1.49h.41v2.29H237v-1.5l-1.12,1.5Zm.74-3a.23.23,0,0,0,.24.24.24.24,0,0,0,.26-.24h.34a.6.6,0,0,1-1.19,0Z"/><path class="cls-4" d="M223,101.6l5.57,3.11,8.74-5a2.57,2.57,0,0,0,1.22-2.85,1.64,1.64,0,0,0-.87-1.07,1.63,1.63,0,0,0-1.38,0Z"/><path class="cls-5" d="M237.56,111.2a2.46,2.46,0,0,1-2.46,2.46h-1.71a2.47,2.47,0,0,1-2.47-2.46v-.38a2.48,2.48,0,0,1,2.47-2.47h1.71a2.47,2.47,0,0,1,2.46,2.47Zm-4.26-4.9V107a.28.28,0,0,1-.27.28,3.49,3.49,0,0,0-3.49,3.49v.54a3.49,3.49,0,0,0,3.49,3.49h2.43a3.49,3.49,0,0,0,3.49-3.49v-.54a3.49,3.49,0,0,0-3.49-3.49.29.29,0,0,1-.28-.28v-.67h.1a.47.47,0,0,0,.47-.47h0a.47.47,0,0,0-.47-.47h-.1v-.94h.47a.47.47,0,1,0,0-.94h-.47v-.94h.47a.47.47,0,1,0,0-.94h-.47V88.42h5.65V82.78h-5.65V80a.94.94,0,0,0-.94-.94,1,1,0,0,0-.94.94V101.6h-.47a.47.47,0,0,0,0,.94h.47v.94h-.47a.47.47,0,0,0,0,.94h.47v.94h-.09a.47.47,0,0,0-.47.47h0a.47.47,0,0,0,.47.47Z"/><line class="cls-6" x1="235.99" y1="85.48" x2="235.99" y2="82.78"/><line class="cls-6" x1="236.8" y1="82.78" x2="236.8" y2="85.48"/><line class="cls-6" x1="237.6" y1="85.48" x2="237.6" y2="82.78"/><line class="cls-7" x1="239.22" y1="82.78" x2="239.22" y2="88.42"/><line class="cls-7" x1="240.02" y1="88.42" x2="240.02" y2="82.78"/><path class="cls-4" d="M223,163.33c.18-4.79.75-12.35.86-15.26a12.39,12.39,0,0,0-.63-4.36L218,128.22a12.27,12.27,0,0,1-.62-4.42c.18-4.5.6-14.51.77-18.56a2.71,2.71,0,0,1,1.71-2.41L223,101.6l5.65,3.09-1.37.78a2.73,2.73,0,0,0-1.36,2.52c.23,3.94.8,13.53.84,14.27a.29.29,0,0,0,0,.09l.07.17a1.48,1.48,0,0,0,2.83-.22c.8-3.77,1.85-8.75,2.38-11.28a1.72,1.72,0,0,1,2-1.34h0a2.38,2.38,0,0,1,1.95,2.49c-.22,3.72-.66,11.24-.78,13.33a1.78,1.78,0,0,0,.25,1l.58,1a14.12,14.12,0,0,1,2,7.07c.06,4,.14,9.78.15,10.28v.06c0,.6.24,11.14.44,18.41Z"/></svg>