<?xml version="1.0" encoding="utf-8"?>
<!-- Generator: Adobe Illustrator 23.0.1, SVG Export Plug-In . SVG Version: 6.00 Build 0)  -->
<svg version="1.1" id="Layer_1" xmlns:xodm="http://www.corel.com/coreldraw/odm/2003"
	 xmlns="http://www.w3.org/2000/svg" xmlns:xlink="http://www.w3.org/1999/xlink" x="0px" y="0px" viewBox="0 0 396.9 70.9"
	 style="enable-background:new 0 0 396.9 70.9;" xml:space="preserve">
<style type="text/css">
	.st0{fill-rule:evenodd;clip-rule:evenodd;}
	.st1{fill-rule:evenodd;clip-rule:evenodd;fill:url(#SVGID_1_);}
	.st2{fill-rule:evenodd;clip-rule:evenodd;fill:url(#SVGID_2_);}
	.st3{fill-rule:evenodd;clip-rule:evenodd;fill:url(#SVGID_3_);}
	.st4{fill-rule:evenodd;clip-rule:evenodd;fill:url(#SVGID_4_);}
	.st5{fill-rule:evenodd;clip-rule:evenodd;fill:url(#SVGID_5_);}
	.st6{fill-rule:evenodd;clip-rule:evenodd;fill:url(#SVGID_6_);}
	.st7{fill-rule:evenodd;clip-rule:evenodd;fill:url(#SVGID_7_);}
	.st8{fill-rule:evenodd;clip-rule:evenodd;fill:url(#SVGID_8_);}
	.st9{fill-rule:evenodd;clip-rule:evenodd;fill:url(#SVGID_9_);}
	.st10{fill-rule:evenodd;clip-rule:evenodd;fill:url(#SVGID_10_);}
	.st11{fill-rule:evenodd;clip-rule:evenodd;fill:url(#SVGID_11_);}
	.st12{fill-rule:evenodd;clip-rule:evenodd;fill:url(#SVGID_12_);}
	.st13{fill-rule:evenodd;clip-rule:evenodd;fill:#A7A9AC;}
</style>
<g id="Слой_x0020_1">
	<g id="_2115103029088">
		<path class="st0" d="M111,69.1v-9.9c0-0.8,0.3-1.5,0.8-1.9c0.5-0.5,1.2-0.8,1.8-0.8c2.6,0,4.5,0.1,5.5,0.2l-0.1,2l-4.3,0
			c-0.4,0-0.6,0.1-0.8,0.2c-0.2,0.2-0.2,0.4-0.2,0.8V69L111,69.1C111,69,111,69.1,111,69.1z"/>
		<path class="st0" d="M120.8,69.1V56.6c1.2-0.1,2.7-0.2,4.8-0.2c1.8,0,2.9,0.3,3.6,0.9s1,1.7,1,3.2c0,1.6-0.3,2.6-0.9,3.2
			s-1.8,0.9-3.3,0.9c-0.8,0-1.6,0-2.3-0.1v4.7L120.8,69.1L120.8,69.1z M123.6,62.5h1.9c0.7,0,1.3-0.2,1.5-0.4
			c0.3-0.3,0.4-0.8,0.4-1.6c0-0.8-0.1-1.3-0.4-1.6c-0.3-0.3-0.8-0.4-1.5-0.4h-1.9C123.6,58.6,123.6,62.5,123.6,62.5z"/>
		<path class="st0" d="M141.7,56.6l-3.1,9.3c-0.4,1.1-0.8,1.9-1.3,2.5c-0.5,0.6-1.1,0.9-1.9,1c-0.8,0.1-1.8,0-3-0.3l0.3-1.9
			c1.2,0.1,1.9,0,2.2-0.1s0.6-0.5,0.9-1.1l0.1-0.4h-0.7c-0.8,0-1.4-0.4-1.7-1.3l-2.6-7.7l2.8,0l1.9,6.6c0,0.1,0.1,0.2,0.3,0.2h0.5
			l2.1-6.9L141.7,56.6L141.7,56.6z"/>
		<polygon class="st0" points="153.1,56.6 153.1,69.1 150.4,69.1 150.4,58.6 146,58.6 146,69.1 143.3,69.1 143.3,56.6 		"/>
		<polygon class="st0" points="165.9,56.6 165.9,69.1 163.1,69.1 163.1,58.6 158.8,58.6 158.8,69.1 156,69.1 156,56.6 		"/>
		<path class="st0" d="M175.5,65.9h-4.3l-0.9,3.3h-2.8l3.6-11.9c0-0.2,0.2-0.4,0.4-0.5c0.2-0.1,0.4-0.2,0.6-0.2h2.6
			c0.5,0,0.9,0.2,1,0.7l3.6,11.9h-2.8L175.5,65.9L175.5,65.9z M174.9,63.8l-1.1-3.8c-0.1-0.6-0.2-1-0.3-1.2h-0.5l-0.3,1.2l-1.1,3.8
			H174.9z"/>
		<path class="st0" d="M190.3,62.6L190.3,62.6c0.2,0.1,0.5,0.2,0.7,0.2c0.2,0,0.4,0.1,0.6,0.2c0.2,0.1,0.3,0.2,0.5,0.3
			c0.1,0.1,0.3,0.2,0.4,0.4c0.1,0.2,0.3,0.3,0.4,0.5c0.1,0.1,0.2,0.3,0.3,0.6c0.1,0.3,0.2,0.5,0.3,0.7c0.1,0.2,0.2,0.5,0.3,0.9
			c0.1,0.4,0.3,0.8,0.3,1c0.1,0.2,0.2,0.6,0.4,1.2c0.1,0.4,0.2,0.7,0.3,0.9l-2.9,0c-0.7-2.2-1.2-3.6-1.4-4.1
			c-0.4-0.8-0.9-1.3-1.5-1.4c-0.2-0.1-0.5-0.1-0.8-0.1h-0.9c0.1,0.5,0.1,0.9,0.1,1.2v4.4h-2.7V56.8h2.7v3.5c0,0.5,0,1-0.1,1.5h0.9
			c0.9,0,1.5-0.3,1.8-1c0.4-0.7,0.9-1.9,1.4-3.9c0-0.1,0-0.1,0.1-0.2l2.8,0c-0.7,2.1-1.1,3.4-1.3,3.8c-0.4,1-1,1.6-1.6,1.8
			C191,62.4,190.8,62.5,190.3,62.6L190.3,62.6z"/>
		<path class="st0" d="M197,57.8c0.8-1,2.1-1.4,4.2-1.4c2,0,3.4,0.5,4.2,1.4c0.8,1,1.2,2.6,1.2,5.2c0,2.5-0.4,4.2-1.2,5.2
			c-0.8,1-2.2,1.4-4.2,1.4c-1.9,0-3.4-0.5-4.2-1.4c-0.8-1-1.2-2.6-1.2-5.2C195.8,60.4,196.2,58.7,197,57.8z M203.1,59.5
			c-0.4-0.6-1-0.9-1.9-0.9c-1,0-1.6,0.3-1.9,0.9c-0.4,0.6-0.5,1.8-0.5,3.4s0.2,2.8,0.5,3.4c0.4,0.6,1,0.9,1.9,0.9
			c1,0,1.6-0.3,1.9-0.9c0.4-0.6,0.5-1.8,0.5-3.4S203.5,60.1,203.1,59.5z"/>
		<path class="st0" d="M219,56.6h2.7c0.7,0,1,0.4,1.1,1.1l0.5,11.5l-2.6,0l-0.4-10.4l-0.3,0l-1.8,7.8c-0.1,0.6-0.5,0.9-1.1,0.9h-1.8
			c-0.6,0-1-0.3-1.2-0.9l-1.9-7.8h-0.3l-0.4,10.4l-2.7,0l0.5-11.5c0-0.7,0.4-1.1,1.1-1.1l2.7,0c0.6,0,1,0.3,1.1,0.9l1.6,6.2
			c0,0.3,0.1,0.6,0.2,1c0.1,0.4,0.1,0.7,0.1,0.8h0.2c0-0.1,0.1-0.3,0.1-0.8c0-0.5,0.1-0.8,0.2-1l1.6-6.2
			C218,56.9,218.4,56.6,219,56.6z"/>
		<polygon class="st0" points="235.7,56.6 235.7,69.1 233,69.1 233,58.6 228.6,58.6 228.6,69.1 225.9,69.1 225.9,56.6 		"/>
		<path class="st0" d="M245.2,65.9h-4.3l-0.9,3.3h-2.8l3.6-11.9c0-0.2,0.2-0.4,0.4-0.5c0.2-0.1,0.4-0.2,0.6-0.2h2.6
			c0.5,0,0.9,0.2,1,0.7l3.6,11.9h-2.8L245.2,65.9L245.2,65.9z M244.6,63.8l-1.1-3.8c-0.1-0.6-0.2-1-0.3-1.2h-0.5l-0.3,1.2l-1.1,3.8
			H244.6z"/>
		<polygon class="st0" points="260.4,56.6 260.4,69.1 257.6,69.1 257.6,63.5 253.2,63.5 253.2,69.1 250.5,69.1 250.5,56.6 
			253.2,56.6 253.2,61.4 257.6,61.4 257.6,56.6 		"/>
		<path class="st0" d="M273.5,69.1h-2.6v-7.5c0-0.6,0.1-1.2,0.2-1.7l-0.2,0c-0.2,0.6-0.4,1.1-0.7,1.7l-4.3,7.5l-2.7,0V56.6l2.6,0V64
			c0,0.5,0,1.1-0.1,1.8l0.1,0c0.2-0.5,0.4-1,0.7-1.7l4.3-7.5h2.7L273.5,69.1L273.5,69.1z"/>
		<path class="st0" d="M286.7,69.1H284v-7.5c0-0.6,0.1-1.2,0.2-1.7l-0.1,0c-0.2,0.6-0.4,1.1-0.7,1.7l-4.3,7.5l-2.7,0V56.6l2.6,0V64
			c0,0.5,0,1.1-0.1,1.8l0.1,0c0.2-0.5,0.4-1,0.7-1.7l4.3-7.5h2.7L286.7,69.1L286.7,69.1L286.7,69.1z M282.8,52.9h1.8
			c0.1,0.8-0.1,1.5-0.7,1.9c-0.6,0.6-1.3,0.9-2.3,0.9c-1,0-1.8-0.3-2.3-0.9s-0.8-1.3-0.7-1.9h1.8c0,1,0.4,1.5,1.3,1.5
			C282.5,54.4,282.9,53.9,282.8,52.9L282.8,52.9z"/>
	</g>
	<g id="_2080447626576">
		
			<linearGradient id="SVGID_1_" gradientUnits="userSpaceOnUse" x1="4859.1655" y1="-3349.7478" x2="4859.1655" y2="-2183.0679" gradientTransform="matrix(2.834646e-02 0 0 -2.834646e-02 -98.137 -60.1449)">
			<stop  offset="0" style="stop-color:#0F5BA3"/>
			<stop  offset="1" style="stop-color:#0DB7E1"/>
		</linearGradient>
		<polygon class="st1" points="51.5,2.6 51.5,35.7 47.3,35.7 47.3,6 32,6 32,35.7 27.7,35.7 27.7,2.6 		"/>
		
			<linearGradient id="SVGID_2_" gradientUnits="userSpaceOnUse" x1="5874.8506" y1="-3349.7478" x2="5874.8506" y2="-2183.0879" gradientTransform="matrix(2.834646e-02 0 0 -2.834646e-02 -98.137 -60.1449)">
			<stop  offset="0" style="stop-color:#0F5BA3"/>
			<stop  offset="1" style="stop-color:#0DB7E1"/>
		</linearGradient>
		<path class="st2" d="M57.4,35.7V2.6c2.7-0.3,6.5-0.4,11.4-0.4c4,0,6.7,0.7,8.3,2.1c1.6,1.5,2.3,4.2,2.3,8.2s-0.8,6.7-2.2,8.2
			c-1.5,1.5-4.1,2.1-8,2.1c-2.5,0-5.1-0.1-7.6-0.4v13.2H57.4z M61.7,19.2h7.1c2.4,0,4.2-0.5,5.1-1.5c0.9-0.9,1.4-2.7,1.4-5.3
			c0-2.6-0.5-4.4-1.4-5.3c-1-1-2.6-1.4-5.1-1.4c-3.4,0-5.8,0-7.1,0C61.7,5.8,61.7,19.2,61.7,19.2z"/>
		
			<linearGradient id="SVGID_3_" gradientUnits="userSpaceOnUse" x1="6885.3906" y1="-3384.0679" x2="6885.3906" y2="-2183.0879" gradientTransform="matrix(2.834646e-02 0 0 -2.834646e-02 -98.137 -60.1449)">
			<stop  offset="0" style="stop-color:#0F5BA3"/>
			<stop  offset="1" style="stop-color:#0DB7E1"/>
		</linearGradient>
		<path class="st3" d="M86.9,5.7c1.9-2.5,5.3-3.8,10.2-3.8c4.9,0,8.3,1.3,10.1,3.8c1.9,2.5,2.9,7,2.9,13.4s-1,10.9-2.9,13.4
			s-5.3,3.8-10.1,3.8c-4.9,0-8.3-1.3-10.2-3.8c-1.9-2.5-2.9-7-2.9-13.4S84.9,8.3,86.9,5.7z M103.8,8.7c-1.3-1.9-3.5-2.9-6.7-2.9
			c-3.3,0-5.5,1-6.7,2.9c-1.3,1.9-1.8,5.4-1.8,10.5s0.6,8.6,1.8,10.5c1.3,1.9,3.5,2.9,6.7,2.9c3.3,0,5.5-1,6.7-2.9
			c1.3-1.9,1.8-5.4,1.8-10.5C105.7,14.1,105.1,10.6,103.8,8.7z"/>
		
			<linearGradient id="SVGID_4_" gradientUnits="userSpaceOnUse" x1="7904.5054" y1="-3349.7478" x2="7904.5054" y2="-2183.0879" gradientTransform="matrix(2.834646e-02 0 0 -2.834646e-02 -98.137 -60.1449)">
			<stop  offset="0" style="stop-color:#0F5BA3"/>
			<stop  offset="1" style="stop-color:#0DB7E1"/>
		</linearGradient>
		<path class="st4" d="M135.9,32.2l0.2,3.3c-2.9,0.2-7.7,0.3-14.1,0.3c-1.9,0-3.5-0.5-4.7-1.6c-1.2-1.1-1.7-2.4-1.7-4.2V8.4
			c0-1.8,0.6-3.1,1.8-4.2c1.2-1.1,2.7-1.6,4.7-1.6c6.5,0,11.2,0.1,14.1,0.3L136,6.2l-13.3,0c-1,0-1.8,0.3-2.1,0.8
			c-0.5,0.5-0.7,1.3-0.7,2.4v7.2H134V20h-14.2v9c0,1.2,0.2,1.9,0.7,2.4c0.5,0.5,1.2,0.8,2.1,0.8L135.9,32.2L135.9,32.2L135.9,32.2z"
			/>
		
			<linearGradient id="SVGID_5_" gradientUnits="userSpaceOnUse" x1="8856.7158" y1="-3349.7478" x2="8856.7158" y2="-2183.0879" gradientTransform="matrix(2.834646e-02 0 0 -2.834646e-02 -98.137 -60.1449)">
			<stop  offset="0" style="stop-color:#0F5BA3"/>
			<stop  offset="1" style="stop-color:#0DB7E1"/>
		</linearGradient>
		<path class="st5" d="M152.6,18.4v0.2c0.6,0.1,1.2,0.2,1.8,0.4c0.6,0.2,1.1,0.4,1.6,0.6c0.5,0.2,0.9,0.6,1.4,1.1
			c0.5,0.5,0.8,0.9,1.2,1.3c0.3,0.4,0.7,0.9,1.1,1.7s0.7,1.4,1,1.8c0.2,0.5,0.6,1.2,1,2.2c0.4,1.1,0.7,1.8,1,2.4
			c0.2,0.6,0.6,1.6,1,2.8c0.5,1.3,0.8,2.2,1.1,2.9l-4.5,0c-0.2-0.5-0.4-1.1-0.7-2c-0.6-1.6-1-2.8-1.3-3.5c-0.3-0.8-0.7-1.8-1.2-2.9
			c-0.5-1.2-0.9-2-1.3-2.5c-0.3-0.5-0.8-1.2-1.3-1.8c-0.5-0.7-1.1-1.3-1.6-1.6c-0.5-0.3-1.1-0.6-1.8-0.8c-0.7-0.2-1.4-0.3-2.2-0.3
			l-3.6,0c0.2,1.2,0.3,2.3,0.3,3.5v12.1l-4.2,0V2.8l4.2,0v10.3c0,1.3-0.1,2.5-0.3,3.8h3.6c1.1,0,2-0.3,3-0.8
			c0.9-0.5,1.7-1.1,2.2-1.7c0.6-0.6,1.2-1.7,1.9-3.1c0.7-1.5,1.2-2.6,1.6-3.5c0.3-0.9,0.9-2.3,1.6-4.5c0.1-0.3,0.2-0.5,0.2-0.7
			l4.3,0c-1.8,5.3-3.2,8.7-4,10.2c-1.7,3.2-3.8,5-6.3,5.4C153,18.3,152.8,18.4,152.6,18.4L152.6,18.4z"/>
		
			<linearGradient id="SVGID_6_" gradientUnits="userSpaceOnUse" x1="9822.6504" y1="-3349.7478" x2="9822.6504" y2="-2183.0876" gradientTransform="matrix(2.834646e-02 0 0 -2.834646e-02 -98.137 -60.1449)">
			<stop  offset="0" style="stop-color:#0F5BA3"/>
			<stop  offset="1" style="stop-color:#0DB7E1"/>
		</linearGradient>
		<polygon class="st6" points="193,6.4 182.3,6.4 182.3,35.8 178.1,35.8 178.1,6.4 167.5,6.4 167.5,2.7 193.1,2.7 193.1,6.4 		"/>
		
			<linearGradient id="SVGID_7_" gradientUnits="userSpaceOnUse" x1="11154.0156" y1="-3349.7478" x2="11154.0156" y2="-2183.0879" gradientTransform="matrix(2.834646e-02 0 0 -2.834646e-02 -98.137 -60.1449)">
			<stop  offset="0" style="stop-color:#0F5BA3"/>
			<stop  offset="1" style="stop-color:#0DB7E1"/>
		</linearGradient>
		<path class="st7" d="M230.4,35.7h-4.1V11.6c0-1.5,0.1-2.7,0.2-3.8h-0.2c-0.4,1.1-1,2.2-1.8,3.6l-14.7,24.3h-4.3V2.6l4.1,0v23.8
			c0,1.2-0.1,2.5-0.2,3.9h0.2c0.5-1.1,1.1-2.2,1.8-3.6l14.5-24.2l4.4,0V35.7L230.4,35.7z"/>
		
			<linearGradient id="SVGID_8_" gradientUnits="userSpaceOnUse" x1="12217.7451" y1="-3349.7478" x2="12217.7451" y2="-2183.0679" gradientTransform="matrix(2.834646e-02 0 0 -2.834646e-02 -98.137 -60.1449)">
			<stop  offset="0" style="stop-color:#0F5BA3"/>
			<stop  offset="1" style="stop-color:#0DB7E1"/>
		</linearGradient>
		<polygon class="st8" points="260,2.6 260,35.7 255.8,35.7 255.8,19.8 240.6,19.8 240.6,35.7 236.4,35.7 236.4,2.6 240.6,2.6 
			240.6,16.1 255.8,16.1 255.8,2.6 		"/>
		
			<linearGradient id="SVGID_9_" gradientUnits="userSpaceOnUse" x1="13248.8662" y1="-3384.0679" x2="13248.8662" y2="-2183.0879" gradientTransform="matrix(2.834646e-02 0 0 -2.834646e-02 -98.137 -60.1449)">
			<stop  offset="0" style="stop-color:#0F5BA3"/>
			<stop  offset="1" style="stop-color:#0DB7E1"/>
		</linearGradient>
		<path class="st9" d="M282.2,18.5v0.2c2.4,0.2,4.1,1.1,5.1,2.5c1,1.5,1.6,3.6,1.6,6.3c0,3.3-0.8,5.6-2.3,6.8s-4.3,1.8-8.2,1.8
			c-5.3,0-9.3-0.1-12.3-0.4V2.7c2.5-0.3,6.1-0.4,10.7-0.4c4.1,0,7,0.6,8.6,1.8c1.7,1.2,2.4,3.5,2.4,6.8c0,2.4-0.5,4.2-1.4,5.4
			C285.5,17.6,284.1,18.3,282.2,18.5L282.2,18.5z M270.1,17h7.1c2.4,0,4.2-0.4,5.1-1.2c1-0.8,1.4-2.2,1.4-4.4c0-2.2-0.5-3.7-1.6-4.4
			c-1-0.8-2.9-1.1-5.6-1.1H270L270.1,17L270.1,17z M270.1,20.2v12.3c1.3,0,3.8,0,7.4,0c2.7,0,4.5-0.4,5.4-1.2c1-0.8,1.5-2.3,1.5-4.6
			c0-2.5-0.5-4.3-1.6-5.2c-1.1-0.9-2.9-1.4-5.6-1.5L270.1,20.2C270.1,20.1,270.1,20.2,270.1,20.2z"/>
		
			<linearGradient id="SVGID_10_" gradientUnits="userSpaceOnUse" x1="14163.3262" y1="-3349.7478" x2="14163.3262" y2="-2183.0879" gradientTransform="matrix(2.834646e-02 0 0 -2.834646e-02 -98.137 -60.1449)">
			<stop  offset="0" style="stop-color:#0F5BA3"/>
			<stop  offset="1" style="stop-color:#0DB7E1"/>
		</linearGradient>
		<path class="st10" d="M313.3,32.2l0.2,3.3c-2.9,0.2-7.7,0.3-14.1,0.3c-1.9,0-3.5-0.5-4.7-1.6c-1.2-1.1-1.7-2.4-1.7-4.2V8.4
			c0-1.8,0.6-3.1,1.8-4.2c1.2-1.1,2.7-1.6,4.7-1.6c6.5,0,11.2,0.1,14.1,0.3l-0.2,3.3l-13.3,0c-1,0-1.8,0.3-2.1,0.8
			c-0.5,0.5-0.7,1.3-0.7,2.4v7.2h14.2V20h-14.2v9c0,1.2,0.2,1.9,0.7,2.4c0.5,0.5,1.2,0.8,2.1,0.8L313.3,32.2
			C313.3,32.3,313.3,32.2,313.3,32.2z"/>
		
			<linearGradient id="SVGID_11_" gradientUnits="userSpaceOnUse" x1="15058.9316" y1="-3384.0679" x2="15058.9316" y2="-2183.0879" gradientTransform="matrix(2.834646e-02 0 0 -2.834646e-02 -98.137 -60.1449)">
			<stop  offset="0" style="stop-color:#0F5BA3"/>
			<stop  offset="1" style="stop-color:#0DB7E1"/>
		</linearGradient>
		<path class="st11" d="M339.7,32l0.4,3.2c-2.6,0.8-5.8,1.1-9.7,1.1c-4.8,0-8.1-1.3-10-3.8c-1.9-2.5-2.9-7-2.9-13.3s1-10.7,2.9-13.3
			c1.9-2.5,5.3-3.8,10-3.8c3.4,0,6.4,0.3,9,1L339,6.2c-2.9-0.3-5.7-0.4-8.6-0.4c-3.2,0-5.4,1-6.7,2.9c-1.3,1.9-1.8,5.4-1.8,10.5
			s0.6,8.6,1.8,10.5s3.5,2.9,6.7,2.9C334.1,32.6,337.2,32.4,339.7,32L339.7,32z"/>
		
			<linearGradient id="SVGID_12_" gradientUnits="userSpaceOnUse" x1="16067.7402" y1="-3349.7478" x2="16067.7402" y2="-2183.0876" gradientTransform="matrix(2.834646e-02 0 0 -2.834646e-02 -98.137 -60.1449)">
			<stop  offset="0" style="stop-color:#0F5BA3"/>
			<stop  offset="1" style="stop-color:#0DB7E1"/>
		</linearGradient>
		<polygon class="st12" points="370,6.4 359.3,6.4 359.3,35.8 355.1,35.8 355.1,6.4 344.5,6.4 344.5,2.7 370.1,2.7 370.1,6.4 		"/>
	</g>
	<g id="_2080447604464">
		<rect x="309.7" y="61.6" class="st13" width="84.1" height="3.4"/>
		<rect x="3.9" y="61.6" class="st13" width="84.1" height="3.4"/>
	</g>
</g>
</svg>
